<?xml version="1.0" encoding="UTF-8"?>
<svg width="97px" height="97px" viewBox="0 0 97 97" version="1.1" xmlns="http://www.w3.org/2000/svg" xmlns:xlink="http://www.w3.org/1999/xlink">
    <!-- Generator: Sketch 46.2 (44496) - http://www.bohemiancoding.com/sketch -->
    <title>merkaba_white</title>
    <desc>Created with Sketch.</desc>
    <defs></defs>
    <g id="Sign-Up" stroke="none" stroke-width="1" fill="none" fill-rule="evenodd">
        <g id="merkaba_white">
            <g id="Group-3-Copy" transform="translate(2.331783, 2.292981)">
                <path d="M60.9556658,56.1352757 C60.0093906,57.7719993 59.1115644,59.3247988 58.189615,60.9199659 L68.3671414,60.9199659 L68.5009335,60.5611597 C66.1109196,58.9773447 63.5613688,57.6491538 60.9556658,56.1352757 L60.9556658,56.1352757 Z M31.9531821,56.1279779 C29.6497277,57.4460331 27.4135748,58.7109768 25.1985042,60.0122066 C24.9238249,60.173568 24.7624635,60.5273062 24.5485989,60.7920525 C24.8463877,60.8800309 25.1437711,61.0430141 25.4421681,61.0450412 C28.2347746,61.0645019 31.0277866,61.0590286 33.8205958,61.0527444 C34.0664895,61.0521363 34.3125859,60.9951732 34.7255171,60.9436835 C33.7599839,59.2664168 32.8682391,57.7174689 31.9531821,56.1279779 L31.9531821,56.1279779 Z M34.8041706,31.4088693 C31.3318596,31.4088693 28.1749736,31.4029906 25.0182903,31.425492 C24.8500366,31.4267083 24.6834046,31.6685477 24.5159617,31.7984882 C24.6523891,31.9608632 24.7575984,32.175336 24.9297037,32.2777073 C26.5721034,33.2541871 28.2248415,34.2138415 29.8769716,35.1739014 C30.5554598,35.5681827 31.2402322,35.9517201 31.9671694,36.3658676 C32.9158772,34.7082642 33.7877559,33.1850612 34.8041706,31.4088693 L34.8041706,31.4088693 Z M60.9641799,36.3697191 C63.3237864,35.013959 65.5054089,33.7737465 67.6683816,32.5019105 C67.9495478,32.3364947 68.1350323,32.0078932 68.3647088,31.7551071 C68.0132004,31.636316 67.663111,31.4177888 67.310589,31.4141399 C64.585284,31.3855571 61.8593708,31.3956928 59.133863,31.4025852 C58.8508724,31.403396 58.5680845,31.4609672 58.1377199,31.5086053 C59.1150105,33.1893182 60.0130395,34.7338064 60.9641799,36.3697191 L60.9641799,36.3697191 Z M62.257301,53.8553362 C63.9530148,54.8504659 65.5396678,55.7857944 67.1307805,56.7138253 C67.7960923,57.1016197 68.454309,57.5084694 69.150028,57.8332194 C69.3981516,57.9487671 69.7478355,57.8472067 70.0510977,57.8449769 C70.0103519,57.5674596 70.0346778,57.2575078 69.9152784,57.0193173 C69.6458697,56.4813108 69.2988211,55.9828337 68.9951535,55.4612472 C67.7498732,53.3217895 66.5090526,51.1801019 65.1646444,48.863471 C64.1441754,50.6155397 63.2149283,52.2115176 62.257301,53.8553362 L62.257301,53.8553362 Z M27.7667049,48.8817154 C27.562976,49.202411 27.4510771,49.364786 27.3529629,49.5348642 C25.9256442,52.0126538 24.4920413,54.4869972 23.0860077,56.9767471 C22.9325522,57.248791 22.9408635,57.6122596 22.8741701,57.933158 C23.1808785,57.8962638 23.5380629,57.9485644 23.7867946,57.8082854 C25.8932097,56.6205762 27.9888809,55.4121901 30.0584018,54.1618418 C30.2530085,54.0440642 30.4123428,53.5062604 30.308958,53.3136809 C29.5321528,51.8689286 28.6854108,50.4618815 27.7667049,48.8817154 L27.7667049,48.8817154 Z M27.7450143,43.6287528 C28.687438,42.0151387 29.566209,40.5596425 30.3707861,39.0642114 C30.4595755,38.8989984 30.2023297,38.3741684 29.9738695,38.2383492 C27.8725223,36.9902308 25.7458357,35.78448 23.6138784,34.5888649 C23.4277857,34.4844665 23.1520929,34.5391996 22.9179567,34.5201444 C22.92343,34.783877 22.8411275,35.0928152 22.9495803,35.3034365 C23.3931214,36.1645712 23.8899767,36.9983394 24.3762908,37.8371755 C25.4654803,39.7165494 26.5601432,41.5926799 27.7450143,43.6287528 L27.7450143,43.6287528 Z M65.1607928,43.6149681 C66.2209941,41.8122206 67.1767969,40.1992146 68.1198286,38.5791136 C68.7591928,37.4803965 69.3947054,36.3788413 69.9963646,35.2594472 C70.0983304,35.0697057 70.0204877,34.7834716 70.0255556,34.5418349 C69.7906085,34.5391996 69.5057934,34.4479777 69.3282148,34.547511 C67.1346321,35.7781958 64.9501716,37.0250978 62.7869962,38.3080832 C62.5994845,38.4191712 62.419676,38.9024446 62.5080599,39.0629952 C63.3152724,40.5268026 64.1824886,41.9571621 65.1607928,43.6149681 L65.1607928,43.6149681 Z M47.8493082,63.8242685 C47.8103869,64.0752301 47.754032,64.2710531 47.7536266,64.4670789 C47.746937,66.8970277 47.7394365,69.3271792 47.7613297,71.7571279 C47.7635596,72.0157927 47.9504632,72.2728358 48.0516181,72.5306897 C48.2958901,72.3523002 48.628546,72.2266167 48.7706494,71.9874126 C49.9857252,69.9422175 51.1675556,67.8771563 52.3562784,65.8161495 C52.7156927,65.1930025 53.0647685,64.5637741 53.4827675,63.8242685 L47.8493082,63.8242685 Z M39.4802054,63.8177816 C39.5718327,64.0796899 39.5961586,64.2124684 39.6602166,64.3221374 C41.1438902,66.8690529 42.6251312,69.4175902 44.1298871,71.9521401 C44.2744232,72.1960067 44.5703876,72.3494622 44.7960098,72.5448798 C44.9255449,72.269795 45.1602892,71.9971429 45.1671815,71.7188147 C45.2046839,70.2037203 45.1862368,68.6874095 45.1866422,67.1715042 C45.1870476,66.0705572 45.1868449,64.9696102 45.1868449,63.8177816 L39.4802054,63.8177816 Z M53.3459347,28.7372839 C53.3287039,28.5193649 53.3524215,28.4052361 53.3090405,28.3296233 C51.78827,25.6815528 50.2677022,23.0336851 48.7215923,20.4006155 C48.6111125,20.212293 48.3076476,20.1370856 48.0937829,20.0095776 C47.9784379,20.2504034 47.7666003,20.4898103 47.7631542,20.7322578 C47.7353822,22.723936 47.7463288,24.7162224 47.7457207,26.708306 C47.745518,27.3697662 47.745518,28.0310236 47.745518,28.7372839 L53.3459347,28.7372839 Z M39.3413454,28.768502 C41.2827502,28.768502 42.9904242,28.7859356 44.6962738,28.74073 C44.8631085,28.7362703 45.1568431,28.346246 45.1596811,28.1321786 C45.1911019,25.6033047 45.1854259,23.0738227 45.1629245,20.5445434 C45.1613028,20.363924 44.9450055,20.0328899 44.8387827,20.0369442 C44.6194447,20.0454582 44.3109119,20.1768178 44.2061081,20.35541 C42.6162117,23.0677412 41.0532764,25.7958843 39.3413454,28.768502 L39.3413454,28.768502 Z M74.553,58.6763125 C72.5659842,58.6055648 70.8122938,60.2165436 70.7360728,62.1826797 C70.6466754,64.4814717 72.1635943,66.1763746 74.4021798,66.2791513 C76.4625785,66.3738194 78.2383649,64.7158106 78.319451,62.6219639 C78.407024,60.3592552 76.8795639,58.7590203 74.553,58.6763125 L74.553,58.6763125 Z M22.1689235,62.5206062 C22.3915049,60.5141297 20.3325252,58.5980643 18.5328184,58.6548246 C16.229364,58.7273967 14.6656179,60.233369 14.5630439,62.4271544 C14.4795252,64.2126711 16.0805709,66.2769214 18.3990263,66.2801649 C20.534227,66.2834083 22.3203518,64.4127512 22.1689235,62.5206062 L22.1689235,62.5206062 Z M46.4708439,10.0410508 C44.2693553,10.0434833 42.5766822,11.7339266 42.5872234,13.9198061 C42.5961429,15.8131674 44.3769971,17.6217936 46.2531276,17.6432814 C48.4471157,17.6682154 50.3266924,15.9185793 50.3092589,13.8675055 C50.2908118,11.7223718 48.6019903,10.0388209 46.4708439,10.0410508 L46.4708439,10.0410508 Z M74.5079972,33.8633467 C76.3790598,34.0857254 78.4564866,32.1043857 78.3348574,29.9373587 C78.2176879,27.8457418 76.5801534,26.1946254 74.4905636,26.2108426 C72.3079276,26.227668 70.7535063,27.9414234 70.7186393,30.2031185 C70.6876239,32.2065542 72.8333657,34.0480204 74.5079972,33.8633467 L74.5079972,33.8633467 Z M22.168518,30.0137824 C22.3965728,28.1413008 20.3428637,26.0957003 18.3363873,26.1899629 C16.1965241,26.290307 14.5737878,27.9085836 14.5867616,30.1198025 C14.59933,32.2590575 16.2765967,33.811857 18.4886265,33.8866589 C20.1675149,33.9432165 22.434886,32.0113393 22.168518,30.0137824 L22.168518,30.0137824 Z M46.3846899,82.5008383 C48.5612445,82.5233397 50.2946634,80.807557 50.3094616,78.615596 C50.3226381,76.6717586 48.5496897,74.8775252 46.5732151,74.8347522 C44.4862607,74.7895467 42.5912777,76.5657385 42.5870207,78.5709987 C42.582561,80.6859278 44.3159798,82.4797559 46.3846899,82.5008383 L46.3846899,82.5008383 Z M62.4316362,63.7632512 C60.7442337,63.7632512 59.0564258,63.7802793 57.369226,63.7539263 C56.7742565,63.7446014 56.4241671,63.8869076 56.1146208,64.4796472 C55.3218011,65.997377 54.396811,67.4457781 53.5338518,68.9274245 C52.7390049,70.2919015 51.935644,71.6525268 51.1839756,73.0409242 C51.014911,73.3533085 51.0451155,73.7737401 50.9836928,74.1443038 C51.3429044,74.0847055 51.7025214,74.0261207 52.0613275,73.9634817 C52.0915321,73.9584138 52.1160607,73.9249658 52.1452517,73.9081404 C57.3882813,70.8884927 62.6343515,67.8741156 67.8662318,64.8350072 C68.0987463,64.6997961 68.2017256,64.3409899 68.3649115,64.0865822 C68.1084766,63.9789403 67.8534607,63.7825092 67.5954041,63.7782522 C65.8745535,63.7504801 64.1528922,63.7638594 62.4316362,63.7632512 L62.4316362,63.7632512 Z M30.4879556,63.7632512 C28.8331903,63.7632512 27.1778168,63.7417634 25.5240651,63.7808875 C25.1861386,63.7887933 24.8534827,64.0229296 24.5183943,64.1528701 C24.7395567,64.4001828 24.9163245,64.7225002 25.1887739,64.8836589 C28.3126173,66.7320174 31.4455829,68.5655776 34.5876706,70.3829207 C36.774361,71.6476617 38.9738225,72.8905094 41.1840278,74.1132883 C41.39323,74.2290388 41.7210208,74.1305191 41.9934702,74.1317354 C41.9837398,73.8941531 42.0565146,73.609338 41.9515081,73.4260833 C40.2497128,70.452452 38.5065636,67.5023357 36.8207828,64.5197849 C36.4627875,63.8862994 36.0180301,63.7354792 35.3506912,63.7508856 C33.7305902,63.7883879 32.1088675,63.7630485 30.4879556,63.7632512 L30.4879556,63.7632512 Z M73.2621087,46.2656739 C73.2621087,43.1623048 73.271839,40.0589356 73.2446752,36.9559719 C73.2422426,36.6857524 72.9963489,36.4177627 72.8635703,36.1487594 C72.6539627,36.2774837 72.3565793,36.3551236 72.2477211,36.5424326 C70.5090316,39.5304567 68.8025739,42.5371307 67.0667225,45.5267765 C66.7590006,46.0566744 66.7754205,46.4852146 67.0865886,47.0163288 C68.7987223,49.9374569 70.4690967,52.8831135 72.1808251,55.804647 C72.3196851,56.0416212 72.660855,56.1602097 72.907965,56.333734 C73.026148,56.0472972 73.2446752,55.7616713 73.246905,55.474221 C73.2716363,52.404908 73.2623114,49.3353923 73.2621087,46.2656739 L73.2621087,46.2656739 Z M62.4105538,28.7837057 C64.1328233,28.7837057 65.8552956,28.7970849 67.5771597,28.7691102 C67.8358245,28.7650559 68.0914485,28.5676111 68.3482888,28.4595639 C68.1928062,28.2047507 68.098949,27.8479717 67.8721105,27.7109361 C65.8567146,26.4934278 63.8208444,25.3095702 61.785177,24.1257126 C58.5585569,22.248974 55.3313287,20.3730462 52.0911267,18.5200253 C51.8032709,18.3552177 51.4187199,18.3596775 51.078969,18.2854836 C51.1045111,18.6485468 51.0124784,19.0774925 51.1734344,19.3643347 C52.8673237,22.3801308 54.5899987,25.3799124 56.3467298,28.3592198 C56.4857926,28.5951804 56.9350098,28.7583663 57.2441506,28.7652586 C58.9656093,28.8039772 60.6882843,28.7839084 62.4105538,28.7837057 L62.4105538,28.7837057 Z M30.4638325,28.7847193 C31.8797991,28.7847193 33.306307,28.6774828 34.7086917,28.815532 C36.0419505,28.9468915 36.6715843,28.3521247 37.2578371,27.2635433 C38.7031975,24.5793895 40.2762685,21.9641589 41.7765648,19.3087907 C41.9322501,19.0328951 41.9427913,18.6748998 42.020634,18.3548123 C41.658179,18.3923146 41.2379501,18.324405 40.9425938,18.485361 C39.469056,19.2889246 38.02775,20.1520865 36.5757,20.995585 C32.7139728,23.2394411 28.8500157,25.4796484 24.997816,27.7403298 C24.7867894,27.8643916 24.6767149,28.160356 24.5196106,28.3762479 C24.7815188,28.5120671 25.0413998,28.759988 25.3059434,28.7654613 C27.024564,28.8009365 28.744401,28.7837057 30.4638325,28.7847193 L30.4638325,28.7847193 Z M20.010816,35.8152927 C19.8166147,36.3845174 19.6102505,36.7090646 19.6090342,37.0344227 C19.5895735,43.1448712 19.5887626,49.2555225 19.6114667,55.365971 C19.612683,55.6783553 19.862631,55.9895233 19.9966259,56.3012995 C20.2591423,56.1004086 20.6136914,55.9540482 20.7699849,55.6903155 C22.5492175,52.6866823 24.3061513,49.6698726 26.0377457,46.6386701 C26.1545098,46.4343331 26.113764,46.0329567 25.9882832,45.813416 C24.223038,42.7232233 22.432048,39.6478289 20.6406525,36.5730426 C20.5340243,36.3899907 20.3684058,36.2414003 20.010816,35.8152927 L20.010816,35.8152927 Z M47.81809,61.049501 C50.1592495,61.049501 52.4450677,61.063691 54.730075,61.027405 C54.9563053,61.0235534 55.2542969,60.75678 55.3891026,60.5333877 C56.3088221,59.0097792 57.1496853,57.4367082 58.1069071,55.9374255 C58.6621445,55.0679794 58.4724029,54.6043694 57.6155252,54.1429893 C55.902986,53.2204318 54.2267328,52.2307755 52.5387222,51.2628098 C51.0112621,50.3868768 49.4884644,49.5026325 47.81809,48.5379102 L47.81809,61.049501 Z M49.0372201,46.2567544 C52.8215101,48.4343226 56.3801779,50.482153 60.005539,52.5680938 C61.0764842,50.729263 62.0136372,48.9851002 63.0884339,47.3303349 C63.6412386,46.4793359 63.4760256,45.8178757 63.0217406,45.0658018 C62.1368881,43.6003726 61.2149387,42.1523769 60.4263761,40.6358635 C60.0410142,39.8949389 59.6783565,40.0404885 59.1628513,40.3504403 C58.2994867,40.8695943 57.4367302,41.3901673 56.5656624,41.8965502 C54.1349028,43.3092734 51.7000888,44.715307 49.0372201,46.2567544 L49.0372201,46.2567544 Z M43.8576404,46.2571599 C40.2134268,44.1389873 36.8536227,42.1736621 33.4698983,40.2500962 C33.2669802,40.1347512 32.7064723,40.2511098 32.5959924,40.43254 C31.5674148,42.1221724 30.5864753,43.8414012 29.6310779,45.5738065 C29.4687029,45.8685546 29.3251804,46.3599365 29.4589725,46.6025868 C30.5558652,48.5875754 31.7204649,50.5350617 32.9099985,52.5717427 C36.5459008,50.4746525 40.0960546,48.4270249 43.8576404,46.2571599 L43.8576404,46.2571599 Z M34.2029169,54.8133689 C35.3510966,56.8255214 36.4556925,58.778481 37.5886685,60.7148179 C37.6867828,60.8826662 37.9718005,61.0332837 38.1714751,61.0353109 C40.4593205,61.0574069 42.7475712,61.0492982 45.1104212,61.0492982 L45.1104212,48.5261527 C41.3897839,50.670881 37.8343595,52.7203331 34.2029169,54.8133689 L34.2029169,54.8133689 Z M47.8243742,43.9670847 C51.3812176,41.910943 54.7811593,39.9598078 58.1504909,37.9573857 C58.3278669,37.851771 58.3943575,37.2314621 58.2619844,36.9855683 C57.3874704,35.359994 56.4201128,33.7844904 55.5366793,32.1635786 C55.2184163,31.5797584 54.8279865,31.3709616 54.1738241,31.3851516 C52.3870911,31.4238703 50.5979255,31.4370468 48.8120034,31.3815028 C47.9585718,31.3551498 47.7209894,31.6580065 47.7299089,32.4842742 C47.7678166,35.9578016 47.7443017,39.4321398 47.7487614,42.9060726 C47.7491668,43.1998071 47.7893045,43.4935416 47.8243742,43.9670847 L47.8243742,43.9670847 Z M45.1813716,44.0185744 C45.1813716,39.8195288 45.1781282,35.9434088 45.1844123,32.0672888 C45.1854259,31.4202214 44.7570884,31.3997472 44.293073,31.3997472 C42.370318,31.3999499 40.4465494,31.3697453 38.5254161,31.4263029 C38.1655964,31.4368441 37.6815122,31.70605 37.4858919,32.0062714 C36.7536841,33.128909 36.1133063,34.3119557 35.4467783,35.4767581 C35.0364824,36.1939649 34.6407821,36.9196859 34.21285,37.6877743 C37.8623343,39.7941894 41.4122853,41.843236 45.1813716,44.0185744 L45.1813716,44.0185744 Z M23.3689983,25.719866 C27.2110621,23.5149313 31.1532674,21.2548579 35.0928373,18.9901222 C36.7261148,18.0511447 38.3685145,17.1263573 39.9665195,16.1306196 C40.1838303,15.995003 40.292283,15.4606454 40.2383608,15.1476529 C39.508991,10.9186055 42.7173667,7.24398449 46.9360756,7.51400133 C49.3954181,7.67130843 51.7159006,9.53851943 52.422769,11.8987341 C52.7456945,12.9771797 52.9790199,14.0298805 52.6165649,15.167519 C52.5302081,15.4385494 52.7965761,16.0195316 53.0655793,16.1770414 C58.4336843,19.3221699 63.8228716,22.4320259 69.2258435,25.516948 C69.4463978,25.6428342 69.9308875,25.5666132 70.1484011,25.3983595 C72.7869439,23.3547862 75.6294184,23.2009252 78.3658728,25.0468511 C80.3044396,26.3545678 81.5412059,29.8291087 80.429515,32.251557 C79.5503385,34.1674197 78.2965442,35.4406747 76.3239212,36.1138924 C76.0687026,36.20106 75.8430804,36.7850829 75.8408505,37.1404429 C75.8088215,41.8355329 75.8193627,46.5308256 75.8193627,51.2261183 C75.8193627,52.6110695 75.844094,53.9966288 75.8086188,55.3805665 C75.7921988,56.0154709 75.9782915,56.3673847 76.6300213,56.5486123 C79.8367753,57.4405598 81.5116095,61.362088 80.6620295,64.0565803 C79.5689883,67.5226072 76.3289891,69.4824591 72.9543868,68.5682129 C72.0158148,68.3140079 71.1370438,67.7220791 70.3294259,67.1465702 C69.8727082,66.8212121 69.5769465,66.7115431 69.0865781,66.9955473 C63.9086202,69.9959371 58.7259998,72.9890291 53.5332436,75.9638767 C52.7454918,76.415121 52.4673664,76.8835962 52.665622,77.8799421 C53.1006491,80.0654162 52.2654619,81.9683051 50.6309681,83.3867043 C47.8947164,85.7607036 43.939132,85.4329129 41.583377,82.6871337 C40.2805255,81.1689985 39.9010424,79.3303703 40.2778902,77.3751809 C40.3849239,76.8193354 40.3056622,76.5503322 39.7925897,76.2588275 C36.5724565,74.4287134 33.3772574,72.555421 30.1735441,70.6965213 C28.1952451,69.5485443 26.2049859,68.4198253 24.2439177,67.2424546 C23.5479959,66.8246583 23.1229019,66.7354635 22.3505564,67.3498937 C19.8618202,69.3304226 16.5974951,69.3920481 13.8794878,66.9160829 C11.854767,65.071576 11.5632623,61.1867392 13.1734303,58.8915962 C13.9607766,57.7691613 14.9384727,56.9564755 16.2392971,56.5634105 C16.9421111,56.3509648 17.1687469,55.9366146 17.1663143,55.2218404 C17.1464482,49.2431568 17.1531378,43.2642706 17.158003,37.2853843 C17.1584084,36.7206194 17.1385423,36.2590366 16.443026,36.0299682 C12.598935,34.7636055 11.4499444,31.0024251 12.4738596,27.8980424 C13.5368989,24.6748685 16.9865058,23.0038859 20.4338829,24.117604 C21.4300261,24.4393132 22.3073781,25.1273291 23.3689983,25.719866 L23.3689983,25.719866 Z" id="Fill-4" fill="#FFFFFF"></path>
                <circle id="Oval" stroke="#FFFFFF" stroke-width="2.3" cx="46" cy="46" r="46"></circle>
            </g>
        </g>
    </g>
</svg>